<mxfile host="app.diagrams.net" modified="2024-02-22T08:41:30.269Z" agent="Mozilla/5.0 (Macintosh; Intel Mac OS X 10_15_7) AppleWebKit/537.36 (KHTML, like Gecko) Chrome/121.0.0.0 Safari/537.36 Edg/121.0.0.0" etag="ybxQ3khmWYMMrx34Sz74" version="23.1.5" type="github">
  <diagram id="prtHgNgQTEPvFCAcTncT" name="Page-1">
    <mxGraphModel dx="977" dy="2875" grid="1" gridSize="10" guides="1" tooltips="1" connect="1" arrows="1" fold="1" page="1" pageScale="1" pageWidth="827" pageHeight="1169" math="0" shadow="0">
      <root>
        <mxCell id="0" />
        <mxCell id="1" parent="0" />
        <mxCell id="y27og5Ccl-f9T7MtjEti-5" value="凤悦集团特殊营销费计算" style="swimlane;childLayout=stackLayout;resizeParent=1;resizeParentMax=0;startSize=20;html=1;" vertex="1" parent="1">
          <mxGeometry x="220" y="-1850" width="780" height="610" as="geometry" />
        </mxCell>
        <mxCell id="y27og5Ccl-f9T7MtjEti-6" value="结算适配器" style="swimlane;startSize=20;html=1;" vertex="1" parent="y27og5Ccl-f9T7MtjEti-5">
          <mxGeometry y="20" width="460" height="590" as="geometry" />
        </mxCell>
        <mxCell id="y27og5Ccl-f9T7MtjEti-9" value="结算MQ" style="strokeWidth=2;html=1;shape=mxgraph.flowchart.sequential_data;whiteSpace=wrap;" vertex="1" parent="y27og5Ccl-f9T7MtjEti-6">
          <mxGeometry x="200" y="37" width="70" height="33" as="geometry" />
        </mxCell>
        <mxCell id="y27og5Ccl-f9T7MtjEti-20" style="edgeStyle=orthogonalEdgeStyle;rounded=0;orthogonalLoop=1;jettySize=auto;html=1;exitX=1;exitY=0.5;exitDx=0;exitDy=0;exitPerimeter=0;entryX=0.5;entryY=0;entryDx=0;entryDy=0;" edge="1" parent="y27og5Ccl-f9T7MtjEti-6" source="y27og5Ccl-f9T7MtjEti-11" target="y27og5Ccl-f9T7MtjEti-15">
          <mxGeometry relative="1" as="geometry" />
        </mxCell>
        <mxCell id="y27og5Ccl-f9T7MtjEti-21" value="是" style="edgeLabel;html=1;align=center;verticalAlign=middle;resizable=0;points=[];" vertex="1" connectable="0" parent="y27og5Ccl-f9T7MtjEti-20">
          <mxGeometry x="-0.0667" relative="1" as="geometry">
            <mxPoint as="offset" />
          </mxGeometry>
        </mxCell>
        <mxCell id="y27og5Ccl-f9T7MtjEti-39" style="edgeStyle=orthogonalEdgeStyle;rounded=0;orthogonalLoop=1;jettySize=auto;html=1;exitX=0;exitY=0.5;exitDx=0;exitDy=0;exitPerimeter=0;entryX=0.5;entryY=0;entryDx=0;entryDy=0;" edge="1" parent="y27og5Ccl-f9T7MtjEti-6" source="y27og5Ccl-f9T7MtjEti-11" target="y27og5Ccl-f9T7MtjEti-38">
          <mxGeometry relative="1" as="geometry" />
        </mxCell>
        <mxCell id="y27og5Ccl-f9T7MtjEti-11" value="是否营销费结算" style="strokeWidth=2;html=1;shape=mxgraph.flowchart.decision;whiteSpace=wrap;" vertex="1" parent="y27og5Ccl-f9T7MtjEti-6">
          <mxGeometry x="195" y="90" width="80" height="60" as="geometry" />
        </mxCell>
        <mxCell id="y27og5Ccl-f9T7MtjEti-12" style="edgeStyle=orthogonalEdgeStyle;rounded=0;orthogonalLoop=1;jettySize=auto;html=1;exitX=0.5;exitY=1;exitDx=0;exitDy=0;exitPerimeter=0;entryX=0.5;entryY=0;entryDx=0;entryDy=0;entryPerimeter=0;" edge="1" parent="y27og5Ccl-f9T7MtjEti-6" source="y27og5Ccl-f9T7MtjEti-9" target="y27og5Ccl-f9T7MtjEti-11">
          <mxGeometry relative="1" as="geometry" />
        </mxCell>
        <mxCell id="y27og5Ccl-f9T7MtjEti-15" value="查询营销费" style="rounded=1;whiteSpace=wrap;html=1;absoluteArcSize=1;arcSize=14;strokeWidth=2;" vertex="1" parent="y27og5Ccl-f9T7MtjEti-6">
          <mxGeometry x="260" y="180" width="90" height="40" as="geometry" />
        </mxCell>
        <mxCell id="y27og5Ccl-f9T7MtjEti-26" style="edgeStyle=orthogonalEdgeStyle;rounded=0;orthogonalLoop=1;jettySize=auto;html=1;exitX=0.5;exitY=1;exitDx=0;exitDy=0;exitPerimeter=0;entryX=0.5;entryY=0;entryDx=0;entryDy=0;" edge="1" parent="y27og5Ccl-f9T7MtjEti-6" source="y27og5Ccl-f9T7MtjEti-23" target="y27og5Ccl-f9T7MtjEti-25">
          <mxGeometry relative="1" as="geometry" />
        </mxCell>
        <mxCell id="y27og5Ccl-f9T7MtjEti-35" style="edgeStyle=orthogonalEdgeStyle;rounded=0;orthogonalLoop=1;jettySize=auto;html=1;exitX=0;exitY=0.5;exitDx=0;exitDy=0;exitPerimeter=0;entryX=0.5;entryY=0;entryDx=0;entryDy=0;" edge="1" parent="y27og5Ccl-f9T7MtjEti-6" source="y27og5Ccl-f9T7MtjEti-23" target="y27og5Ccl-f9T7MtjEti-34">
          <mxGeometry relative="1" as="geometry" />
        </mxCell>
        <mxCell id="y27og5Ccl-f9T7MtjEti-23" value="j集团营销费&amp;gt;0" style="strokeWidth=2;html=1;shape=mxgraph.flowchart.decision;whiteSpace=wrap;" vertex="1" parent="y27og5Ccl-f9T7MtjEti-6">
          <mxGeometry x="265" y="240" width="80" height="60" as="geometry" />
        </mxCell>
        <mxCell id="y27og5Ccl-f9T7MtjEti-28" value="" style="edgeStyle=orthogonalEdgeStyle;rounded=0;orthogonalLoop=1;jettySize=auto;html=1;" edge="1" parent="y27og5Ccl-f9T7MtjEti-6" source="y27og5Ccl-f9T7MtjEti-25" target="y27og5Ccl-f9T7MtjEti-27">
          <mxGeometry relative="1" as="geometry" />
        </mxCell>
        <mxCell id="y27og5Ccl-f9T7MtjEti-25" value="设置营销费&lt;br&gt;设置计算酒店" style="rounded=1;whiteSpace=wrap;html=1;absoluteArcSize=1;arcSize=14;strokeWidth=2;" vertex="1" parent="y27og5Ccl-f9T7MtjEti-6">
          <mxGeometry x="260" y="330" width="92.5" height="50" as="geometry" />
        </mxCell>
        <mxCell id="y27og5Ccl-f9T7MtjEti-36" style="edgeStyle=orthogonalEdgeStyle;rounded=0;orthogonalLoop=1;jettySize=auto;html=1;exitX=0;exitY=0.5;exitDx=0;exitDy=0;entryX=0.5;entryY=1;entryDx=0;entryDy=0;" edge="1" parent="y27og5Ccl-f9T7MtjEti-6" source="y27og5Ccl-f9T7MtjEti-27" target="y27og5Ccl-f9T7MtjEti-34">
          <mxGeometry relative="1" as="geometry" />
        </mxCell>
        <mxCell id="y27og5Ccl-f9T7MtjEti-27" value="发送结算api" style="rounded=1;whiteSpace=wrap;html=1;absoluteArcSize=1;arcSize=14;strokeWidth=2;" vertex="1" parent="y27og5Ccl-f9T7MtjEti-6">
          <mxGeometry x="185" y="480" width="90" height="40" as="geometry" />
        </mxCell>
        <mxCell id="y27og5Ccl-f9T7MtjEti-34" value="结束" style="rounded=1;whiteSpace=wrap;html=1;absoluteArcSize=1;arcSize=14;strokeWidth=2;" vertex="1" parent="y27og5Ccl-f9T7MtjEti-6">
          <mxGeometry x="107.5" y="330" width="92.5" height="50" as="geometry" />
        </mxCell>
        <mxCell id="y27og5Ccl-f9T7MtjEti-40" style="edgeStyle=orthogonalEdgeStyle;rounded=0;orthogonalLoop=1;jettySize=auto;html=1;exitX=0.5;exitY=1;exitDx=0;exitDy=0;entryX=0;entryY=0.5;entryDx=0;entryDy=0;" edge="1" parent="y27og5Ccl-f9T7MtjEti-6" source="y27og5Ccl-f9T7MtjEti-38" target="y27og5Ccl-f9T7MtjEti-27">
          <mxGeometry relative="1" as="geometry" />
        </mxCell>
        <mxCell id="y27og5Ccl-f9T7MtjEti-38" value="正常结算" style="rounded=1;whiteSpace=wrap;html=1;absoluteArcSize=1;arcSize=14;strokeWidth=2;" vertex="1" parent="y27og5Ccl-f9T7MtjEti-6">
          <mxGeometry x="30" y="190" width="90" height="40" as="geometry" />
        </mxCell>
        <mxCell id="y27og5Ccl-f9T7MtjEti-7" value="奖励系统" style="swimlane;startSize=20;html=1;" vertex="1" parent="y27og5Ccl-f9T7MtjEti-5">
          <mxGeometry x="460" y="20" width="160" height="590" as="geometry" />
        </mxCell>
        <mxCell id="y27og5Ccl-f9T7MtjEti-17" value="查询营销费" style="rounded=1;whiteSpace=wrap;html=1;absoluteArcSize=1;arcSize=14;strokeWidth=2;" vertex="1" parent="y27og5Ccl-f9T7MtjEti-7">
          <mxGeometry x="35" y="180" width="90" height="40" as="geometry" />
        </mxCell>
        <mxCell id="y27og5Ccl-f9T7MtjEti-19" style="edgeStyle=orthogonalEdgeStyle;rounded=0;orthogonalLoop=1;jettySize=auto;html=1;exitX=1;exitY=0.5;exitDx=0;exitDy=0;entryX=0;entryY=0.5;entryDx=0;entryDy=0;" edge="1" parent="y27og5Ccl-f9T7MtjEti-5" source="y27og5Ccl-f9T7MtjEti-15" target="y27og5Ccl-f9T7MtjEti-17">
          <mxGeometry relative="1" as="geometry" />
        </mxCell>
        <mxCell id="y27og5Ccl-f9T7MtjEti-22" style="edgeStyle=orthogonalEdgeStyle;rounded=0;orthogonalLoop=1;jettySize=auto;html=1;exitX=0.5;exitY=1;exitDx=0;exitDy=0;entryX=1;entryY=0.5;entryDx=0;entryDy=0;entryPerimeter=0;" edge="1" parent="y27og5Ccl-f9T7MtjEti-5" source="y27og5Ccl-f9T7MtjEti-17" target="y27og5Ccl-f9T7MtjEti-23">
          <mxGeometry relative="1" as="geometry">
            <mxPoint x="299.99999999999955" y="320" as="targetPoint" />
          </mxGeometry>
        </mxCell>
        <mxCell id="y27og5Ccl-f9T7MtjEti-8" value="结算api" style="swimlane;startSize=20;html=1;" vertex="1" parent="y27og5Ccl-f9T7MtjEti-5">
          <mxGeometry x="620" y="20" width="160" height="590" as="geometry" />
        </mxCell>
        <mxCell id="y27og5Ccl-f9T7MtjEti-30" value="结算" style="rounded=1;whiteSpace=wrap;html=1;absoluteArcSize=1;arcSize=14;strokeWidth=2;" vertex="1" parent="y27og5Ccl-f9T7MtjEti-8">
          <mxGeometry x="35" y="480" width="90" height="40" as="geometry" />
        </mxCell>
        <mxCell id="y27og5Ccl-f9T7MtjEti-32" style="edgeStyle=orthogonalEdgeStyle;rounded=0;orthogonalLoop=1;jettySize=auto;html=1;exitX=1;exitY=0.5;exitDx=0;exitDy=0;entryX=0;entryY=0.5;entryDx=0;entryDy=0;" edge="1" parent="y27og5Ccl-f9T7MtjEti-5" source="y27og5Ccl-f9T7MtjEti-27" target="y27og5Ccl-f9T7MtjEti-30">
          <mxGeometry relative="1" as="geometry" />
        </mxCell>
      </root>
    </mxGraphModel>
  </diagram>
</mxfile>
